<svg width="272" height="64" viewBox="0 0 272 64" fill="none" xmlns="http://www.w3.org/2000/svg">
<rect x="0.5" y="0.5" width="271" height="63" rx="3.5" fill="white"/>
<rect x="0.5" y="0.5" width="271" height="63" rx="3.5" stroke="#E9EAEB"/>
<rect x="12" y="12" width="40" height="40" rx="20" fill="#F5F5F5"/>
<path d="M32 21.5C26.1988 21.5 21.5 26.1988 21.5 32C21.5 36.6462 24.5056 40.5706 28.6794 41.9619C29.2044 42.0538 29.4012 41.7388 29.4012 41.4631C29.4012 41.2138 29.3881 40.3869 29.3881 39.5075C26.75 39.9931 26.0675 38.8644 25.8575 38.2738C25.7394 37.9719 25.2275 37.04 24.7812 36.7906C24.4137 36.5937 23.8888 36.1081 24.7681 36.095C25.595 36.0819 26.1856 36.8562 26.3825 37.1712C27.3275 38.7594 28.8369 38.3131 29.4406 38.0375C29.5325 37.355 29.8081 36.8956 30.11 36.6331C27.7737 36.3706 25.3325 35.465 25.3325 31.4487C25.3325 30.3069 25.7394 29.3619 26.4088 28.6269C26.3038 28.3644 25.9362 27.2881 26.5138 25.8444C26.5138 25.8444 27.3931 25.5688 29.4012 26.9206C30.2413 26.6844 31.1338 26.5662 32.0263 26.5662C32.9188 26.5662 33.8113 26.6844 34.6513 26.9206C36.6594 25.5556 37.5387 25.8444 37.5387 25.8444C38.1163 27.2881 37.7488 28.3644 37.6438 28.6269C38.3131 29.3619 38.72 30.2937 38.72 31.4487C38.72 35.4781 36.2656 36.3706 33.9294 36.6331C34.31 36.9612 34.6381 37.5912 34.6381 38.5756C34.6381 39.98 34.625 41.1087 34.625 41.4631C34.625 41.7388 34.8219 42.0669 35.3469 41.9619C37.4313 41.2582 39.2426 39.9185 40.5258 38.1315C41.809 36.3445 42.4994 34.2 42.5 32C42.5 26.1988 37.8013 21.5 32 21.5Z" fill="#0A0D12"/>
<path d="M64.1367 29L67.8965 18.8145H69.291L73.0098 29H71.6973L70.6992 26.1426H66.4473L65.4219 29H64.1367ZM66.8369 25.0488H70.3232L69.5576 22.8613C69.43 22.5013 69.291 22.1003 69.1406 21.6582C68.9948 21.2116 68.8125 20.6488 68.5938 19.9697C68.375 20.6488 68.1904 21.2116 68.04 21.6582C67.8942 22.1003 67.7552 22.5013 67.623 22.8613L66.8369 25.0488ZM76.6602 29.1367C76.1771 29.1367 75.7327 29.0319 75.3271 28.8223C74.9261 28.6081 74.6048 28.2891 74.3633 27.8652C74.1263 27.4368 74.0078 26.9036 74.0078 26.2656V21.7812H75.1699V26.1836C75.1699 26.8079 75.3203 27.2796 75.6211 27.5986C75.9219 27.9131 76.3411 28.0703 76.8789 28.0703C77.4076 28.0703 77.8564 27.9085 78.2256 27.585C78.5947 27.2614 78.7793 26.735 78.7793 26.0059V21.7812H79.9414V29H78.8066V27.9404C78.556 28.3506 78.2484 28.6536 77.8838 28.8496C77.5238 29.041 77.1159 29.1367 76.6602 29.1367ZM84.8154 21.7812V22.7793H83.3525V27.25C83.3525 27.528 83.4095 27.724 83.5234 27.8379C83.6419 27.9473 83.8493 28.002 84.1455 28.002H84.8154V29H84.0361C82.8057 29 82.1904 28.4577 82.1904 27.373V22.7793H80.9053V21.7812H82.1904V19.8125H83.3525V21.7812H84.8154ZM87.1875 24.7754V29H86.0254V18.8145H87.1875V22.793C87.4382 22.401 87.7412 22.1117 88.0967 21.9248C88.4567 21.738 88.86 21.6445 89.3066 21.6445C89.7943 21.6445 90.2386 21.7516 90.6396 21.9658C91.0407 22.1755 91.3597 22.4922 91.5967 22.916C91.8382 23.3398 91.959 23.873 91.959 24.5156V29H90.7969V24.5977C90.7969 23.9733 90.6465 23.5039 90.3457 23.1895C90.0495 22.8704 89.6302 22.7109 89.0879 22.7109C88.5638 22.7109 88.1149 22.8727 87.7412 23.1963C87.3721 23.5199 87.1875 24.0462 87.1875 24.7754ZM96.6621 29.1641C95.9557 29.1641 95.3519 29.0023 94.8506 28.6787C94.3538 28.3551 93.9733 27.9108 93.709 27.3457C93.4447 26.776 93.3125 26.1289 93.3125 25.4043C93.3125 24.6706 93.4515 24.0189 93.7295 23.4492C94.0075 22.8796 94.3926 22.4329 94.8848 22.1094C95.377 21.7812 95.9421 21.6172 96.5801 21.6172C97.25 21.6172 97.8311 21.7767 98.3232 22.0957C98.8154 22.4147 99.1937 22.859 99.458 23.4287C99.7269 23.9984 99.8613 24.6569 99.8613 25.4043V25.7256H94.4609C94.4883 26.432 94.6911 27.0062 95.0693 27.4482C95.4476 27.8903 95.9785 28.1113 96.6621 28.1113C97.1771 28.1113 97.5964 27.9928 97.9199 27.7559C98.248 27.5189 98.4668 27.2135 98.5762 26.8398H99.7383C99.6471 27.3001 99.458 27.7057 99.1709 28.0566C98.8838 28.403 98.5238 28.6742 98.0908 28.8701C97.6624 29.0661 97.1862 29.1641 96.6621 29.1641ZM94.4746 24.7275H98.6992C98.6354 24.0941 98.4144 23.5905 98.0361 23.2168C97.6579 22.8431 97.1725 22.6562 96.5801 22.6562C95.9876 22.6562 95.5046 22.8431 95.1309 23.2168C94.7572 23.5905 94.5384 24.0941 94.4746 24.7275ZM102.35 24.7754V29H101.188V21.7812H102.322V22.8408C102.573 22.4307 102.878 22.1299 103.238 21.9385C103.603 21.7425 104.013 21.6445 104.469 21.6445C104.956 21.6445 105.401 21.7516 105.802 21.9658C106.203 22.1755 106.522 22.4922 106.759 22.916C107 23.3398 107.121 23.873 107.121 24.5156V29H105.959V24.5977C105.959 23.9733 105.809 23.5039 105.508 23.1895C105.212 22.8704 104.792 22.7109 104.25 22.7109C103.726 22.7109 103.277 22.8727 102.903 23.1963C102.534 23.5199 102.35 24.0462 102.35 24.7754ZM111.995 21.7812V22.7793H110.532V27.25C110.532 27.528 110.589 27.724 110.703 27.8379C110.822 27.9473 111.029 28.002 111.325 28.002H111.995V29H111.216C109.985 29 109.37 28.4577 109.37 27.373V22.7793H108.085V21.7812H109.37V19.8125H110.532V21.7812H111.995ZM113.205 29V21.7812H114.367V29H113.205ZM113.786 20.373C113.567 20.373 113.381 20.2956 113.226 20.1406C113.071 19.9857 112.993 19.7988 112.993 19.5801C112.993 19.3613 113.071 19.1745 113.226 19.0195C113.381 18.8646 113.567 18.7871 113.786 18.7871C114.005 18.7871 114.192 18.8646 114.347 19.0195C114.502 19.1745 114.579 19.3613 114.579 19.5801C114.579 19.7988 114.502 19.9857 114.347 20.1406C114.192 20.2956 114.005 20.373 113.786 20.373ZM119.07 29.1641C118.405 29.1641 117.819 29.0046 117.313 28.6855C116.812 28.362 116.42 27.9176 116.138 27.3525C115.86 26.7874 115.721 26.138 115.721 25.4043C115.721 24.666 115.86 24.012 116.138 23.4424C116.42 22.8727 116.812 22.4261 117.313 22.1025C117.819 21.779 118.405 21.6172 119.07 21.6172C119.617 21.6172 120.107 21.7266 120.54 21.9453C120.973 22.1595 121.326 22.4557 121.6 22.834C121.878 23.2122 122.049 23.6452 122.112 24.1328H120.937C120.85 23.709 120.649 23.3604 120.335 23.0869C120.025 22.8089 119.604 22.6699 119.07 22.6699C118.391 22.6699 117.858 22.9183 117.471 23.415C117.088 23.9118 116.896 24.5749 116.896 25.4043C116.896 26.2246 117.088 26.8809 117.471 27.373C117.854 27.8652 118.387 28.1113 119.07 28.1113C119.613 28.1113 120.027 27.9792 120.314 27.7148C120.602 27.446 120.802 27.0905 120.916 26.6484H122.112C122.049 27.1224 121.878 27.5508 121.6 27.9336C121.326 28.3118 120.971 28.6126 120.533 28.8359C120.1 29.0547 119.613 29.1641 119.07 29.1641ZM125.688 29.1094C124.972 29.1094 124.373 28.9248 123.89 28.5557C123.411 28.1865 123.172 27.6419 123.172 26.9219C123.172 26.5072 123.252 26.1699 123.411 25.9102C123.575 25.6504 123.792 25.4476 124.061 25.3018C124.334 25.1514 124.642 25.0374 124.983 24.96C125.33 24.8825 125.683 24.821 126.043 24.7754C126.503 24.7116 126.866 24.6637 127.13 24.6318C127.394 24.5999 127.581 24.5475 127.69 24.4746C127.804 24.4017 127.861 24.2741 127.861 24.0918V24.0234C127.861 23.6315 127.72 23.3079 127.438 23.0527C127.16 22.7975 126.768 22.6699 126.262 22.6699C125.76 22.6699 125.348 22.793 125.024 23.0391C124.705 23.2806 124.532 23.5814 124.505 23.9414H123.322C123.345 23.4993 123.482 23.1074 123.732 22.7656C123.983 22.4193 124.325 22.1458 124.758 21.9453C125.191 21.7448 125.692 21.6445 126.262 21.6445C127.105 21.6445 127.772 21.8633 128.265 22.3008C128.761 22.7337 129.01 23.3079 129.01 24.0234V29H127.861V27.9746H127.834C127.747 28.1478 127.62 28.3232 127.451 28.501C127.283 28.6742 127.055 28.82 126.768 28.9385C126.485 29.0524 126.125 29.1094 125.688 29.1094ZM125.852 28.0703C126.326 28.0703 126.711 27.986 127.007 27.8174C127.303 27.6442 127.52 27.4209 127.656 27.1475C127.793 26.874 127.861 26.5801 127.861 26.2656V25.3633C127.775 25.4453 127.545 25.5205 127.171 25.5889C126.797 25.6527 126.403 25.7142 125.988 25.7734C125.71 25.8099 125.446 25.8737 125.195 25.9648C124.949 26.0514 124.749 26.1768 124.594 26.3408C124.439 26.5003 124.361 26.7168 124.361 26.9902C124.361 27.3275 124.493 27.5918 124.758 27.7832C125.027 27.9746 125.391 28.0703 125.852 28.0703ZM133.884 21.7812V22.7793H132.421V27.25C132.421 27.528 132.478 27.724 132.592 27.8379C132.71 27.9473 132.918 28.002 133.214 28.002H133.884V29H133.104C131.874 29 131.259 28.4577 131.259 27.373V22.7793H129.974V21.7812H131.259V19.8125H132.421V21.7812H133.884ZM135.094 29V21.7812H136.256V29H135.094ZM135.675 20.373C135.456 20.373 135.269 20.2956 135.114 20.1406C134.959 19.9857 134.882 19.7988 134.882 19.5801C134.882 19.3613 134.959 19.1745 135.114 19.0195C135.269 18.8646 135.456 18.7871 135.675 18.7871C135.894 18.7871 136.08 18.8646 136.235 19.0195C136.39 19.1745 136.468 19.3613 136.468 19.5801C136.468 19.7988 136.39 19.9857 136.235 20.1406C136.08 20.2956 135.894 20.373 135.675 20.373ZM140.959 29.1641C140.294 29.1641 139.708 29.0046 139.202 28.6855C138.701 28.362 138.309 27.9176 138.026 27.3525C137.748 26.7874 137.609 26.138 137.609 25.4043C137.609 24.666 137.748 24.012 138.026 23.4424C138.309 22.8727 138.701 22.4261 139.202 22.1025C139.708 21.779 140.294 21.6172 140.959 21.6172C141.629 21.6172 142.215 21.779 142.716 22.1025C143.217 22.4261 143.607 22.8727 143.885 23.4424C144.167 24.012 144.309 24.666 144.309 25.4043C144.309 26.138 144.167 26.7874 143.885 27.3525C143.607 27.9176 143.217 28.362 142.716 28.6855C142.215 29.0046 141.629 29.1641 140.959 29.1641ZM140.959 28.1113C141.643 28.1113 142.176 27.8652 142.559 27.373C142.941 26.8763 143.133 26.2201 143.133 25.4043C143.133 24.5794 142.939 23.9186 142.552 23.4219C142.169 22.9206 141.638 22.6699 140.959 22.6699C140.28 22.6699 139.747 22.9183 139.359 23.415C138.977 23.9118 138.785 24.5749 138.785 25.4043C138.785 26.2246 138.977 26.8809 139.359 27.373C139.742 27.8652 140.275 28.1113 140.959 28.1113ZM146.824 24.7754V29H145.662V21.7812H146.797V22.8408C147.048 22.4307 147.353 22.1299 147.713 21.9385C148.077 21.7425 148.488 21.6445 148.943 21.6445C149.431 21.6445 149.875 21.7516 150.276 21.9658C150.677 22.1755 150.996 22.4922 151.233 22.916C151.475 23.3398 151.596 23.873 151.596 24.5156V29H150.434V24.5977C150.434 23.9733 150.283 23.5039 149.982 23.1895C149.686 22.8704 149.267 22.7109 148.725 22.7109C148.201 22.7109 147.752 22.8727 147.378 23.1963C147.009 23.5199 146.824 24.0462 146.824 24.7754ZM159.58 29.1367C158.956 29.1367 158.407 28.9795 157.933 28.665C157.463 28.346 157.099 27.9062 156.839 27.3457C156.579 26.7806 156.449 26.1289 156.449 25.3906C156.449 24.6478 156.579 23.9961 156.839 23.4355C157.099 22.8704 157.463 22.4307 157.933 22.1162C158.407 21.8018 158.956 21.6445 159.58 21.6445C160.049 21.6445 160.485 21.7448 160.886 21.9453C161.287 22.1413 161.604 22.4421 161.836 22.8477H161.85V18.8145H163.012V29H161.877V27.9062H161.863C161.604 28.321 161.275 28.6309 160.879 28.8359C160.482 29.0365 160.049 29.1367 159.58 29.1367ZM159.758 28.0908C160.428 28.0908 160.959 27.8447 161.351 27.3525C161.747 26.8604 161.945 26.2064 161.945 25.3906C161.945 24.5749 161.747 23.9209 161.351 23.4287C160.959 22.932 160.428 22.6836 159.758 22.6836C159.133 22.6836 158.621 22.9137 158.22 23.374C157.823 23.8343 157.625 24.5065 157.625 25.3906C157.625 26.2747 157.823 26.9469 158.22 27.4072C158.621 27.863 159.133 28.0908 159.758 28.0908ZM164.734 29V21.7812H165.896V29H164.734ZM165.315 20.373C165.097 20.373 164.91 20.2956 164.755 20.1406C164.6 19.9857 164.522 19.7988 164.522 19.5801C164.522 19.3613 164.6 19.1745 164.755 19.0195C164.91 18.8646 165.097 18.7871 165.315 18.7871C165.534 18.7871 165.721 18.8646 165.876 19.0195C166.031 19.1745 166.108 19.3613 166.108 19.5801C166.108 19.7988 166.031 19.9857 165.876 20.1406C165.721 20.2956 165.534 20.373 165.315 20.373ZM170.135 29.1641C169.62 29.1641 169.153 29.0798 168.733 28.9111C168.314 28.7425 167.975 28.4873 167.715 28.1455C167.455 27.7992 167.309 27.3639 167.277 26.8398H168.426C168.508 27.724 169.068 28.166 170.107 28.166C170.609 28.166 171.003 28.0612 171.29 27.8516C171.582 27.6419 171.728 27.3776 171.728 27.0586C171.728 26.7852 171.627 26.5664 171.427 26.4023C171.226 26.2383 170.964 26.1198 170.641 26.0469L169.479 25.7734C168.12 25.4544 167.441 24.7708 167.441 23.7227C167.441 23.3125 167.551 22.9502 167.77 22.6357C167.993 22.3167 168.3 22.0684 168.692 21.8906C169.089 21.7083 169.545 21.6172 170.06 21.6172C170.561 21.6172 171.01 21.7129 171.406 21.9043C171.807 22.0911 172.124 22.3577 172.356 22.7041C172.593 23.0505 172.719 23.4629 172.732 23.9414H171.598C171.593 23.5586 171.452 23.2419 171.174 22.9912C170.896 22.7406 170.524 22.6152 170.06 22.6152C169.618 22.6152 169.264 22.7223 169 22.9365C168.736 23.1507 168.604 23.4128 168.604 23.7227C168.604 23.9961 168.704 24.2171 168.904 24.3857C169.105 24.5498 169.378 24.6729 169.725 24.7549L170.887 25.0283C171.579 25.1924 172.088 25.4385 172.411 25.7666C172.735 26.0902 172.896 26.5117 172.896 27.0312C172.896 27.4779 172.776 27.8607 172.534 28.1797C172.293 28.4987 171.962 28.7425 171.543 28.9111C171.128 29.0798 170.659 29.1641 170.135 29.1641ZM177.244 29.1641C176.579 29.1641 175.993 29.0046 175.487 28.6855C174.986 28.362 174.594 27.9176 174.312 27.3525C174.034 26.7874 173.895 26.138 173.895 25.4043C173.895 24.666 174.034 24.012 174.312 23.4424C174.594 22.8727 174.986 22.4261 175.487 22.1025C175.993 21.779 176.579 21.6172 177.244 21.6172C177.791 21.6172 178.281 21.7266 178.714 21.9453C179.147 22.1595 179.5 22.4557 179.773 22.834C180.051 23.2122 180.222 23.6452 180.286 24.1328H179.11C179.024 23.709 178.823 23.3604 178.509 23.0869C178.199 22.8089 177.777 22.6699 177.244 22.6699C176.565 22.6699 176.032 22.9183 175.645 23.415C175.262 23.9118 175.07 24.5749 175.07 25.4043C175.07 26.2246 175.262 26.8809 175.645 27.373C176.027 27.8652 176.561 28.1113 177.244 28.1113C177.786 28.1113 178.201 27.9792 178.488 27.7148C178.775 27.446 178.976 27.0905 179.09 26.6484H180.286C180.222 27.1224 180.051 27.5508 179.773 27.9336C179.5 28.3118 179.145 28.6126 178.707 28.8359C178.274 29.0547 177.786 29.1641 177.244 29.1641ZM184.244 29.1367C183.761 29.1367 183.317 29.0319 182.911 28.8223C182.51 28.6081 182.189 28.2891 181.947 27.8652C181.71 27.4368 181.592 26.9036 181.592 26.2656V21.7812H182.754V26.1836C182.754 26.8079 182.904 27.2796 183.205 27.5986C183.506 27.9131 183.925 28.0703 184.463 28.0703C184.992 28.0703 185.44 27.9085 185.81 27.585C186.179 27.2614 186.363 26.735 186.363 26.0059V21.7812H187.525V29H186.391V27.9404C186.14 28.3506 185.832 28.6536 185.468 28.8496C185.108 29.041 184.7 29.1367 184.244 29.1367ZM191.764 29.1641C191.249 29.1641 190.782 29.0798 190.362 28.9111C189.943 28.7425 189.604 28.4873 189.344 28.1455C189.084 27.7992 188.938 27.3639 188.906 26.8398H190.055C190.137 27.724 190.697 28.166 191.736 28.166C192.238 28.166 192.632 28.0612 192.919 27.8516C193.211 27.6419 193.356 27.3776 193.356 27.0586C193.356 26.7852 193.256 26.5664 193.056 26.4023C192.855 26.2383 192.593 26.1198 192.27 26.0469L191.107 25.7734C189.749 25.4544 189.07 24.7708 189.07 23.7227C189.07 23.3125 189.18 22.9502 189.398 22.6357C189.622 22.3167 189.929 22.0684 190.321 21.8906C190.718 21.7083 191.174 21.6172 191.688 21.6172C192.19 21.6172 192.639 21.7129 193.035 21.9043C193.436 22.0911 193.753 22.3577 193.985 22.7041C194.222 23.0505 194.348 23.4629 194.361 23.9414H193.227C193.222 23.5586 193.081 23.2419 192.803 22.9912C192.525 22.7406 192.153 22.6152 191.688 22.6152C191.246 22.6152 190.893 22.7223 190.629 22.9365C190.365 23.1507 190.232 23.4128 190.232 23.7227C190.232 23.9961 190.333 24.2171 190.533 24.3857C190.734 24.5498 191.007 24.6729 191.354 24.7549L192.516 25.0283C193.208 25.1924 193.716 25.4385 194.04 25.7666C194.364 26.0902 194.525 26.5117 194.525 27.0312C194.525 27.4779 194.405 27.8607 194.163 28.1797C193.922 28.4987 193.591 28.7425 193.172 28.9111C192.757 29.0798 192.288 29.1641 191.764 29.1641ZM198.408 29.1641C197.893 29.1641 197.426 29.0798 197.007 28.9111C196.588 28.7425 196.248 28.4873 195.988 28.1455C195.729 27.7992 195.583 27.3639 195.551 26.8398H196.699C196.781 27.724 197.342 28.166 198.381 28.166C198.882 28.166 199.276 28.0612 199.563 27.8516C199.855 27.6419 200.001 27.3776 200.001 27.0586C200.001 26.7852 199.901 26.5664 199.7 26.4023C199.5 26.2383 199.238 26.1198 198.914 26.0469L197.752 25.7734C196.394 25.4544 195.715 24.7708 195.715 23.7227C195.715 23.3125 195.824 22.9502 196.043 22.6357C196.266 22.3167 196.574 22.0684 196.966 21.8906C197.362 21.7083 197.818 21.6172 198.333 21.6172C198.834 21.6172 199.283 21.7129 199.68 21.9043C200.081 22.0911 200.397 22.3577 200.63 22.7041C200.867 23.0505 200.992 23.4629 201.006 23.9414H199.871C199.867 23.5586 199.725 23.2419 199.447 22.9912C199.169 22.7406 198.798 22.6152 198.333 22.6152C197.891 22.6152 197.538 22.7223 197.273 22.9365C197.009 23.1507 196.877 23.4128 196.877 23.7227C196.877 23.9961 196.977 24.2171 197.178 24.3857C197.378 24.5498 197.652 24.6729 197.998 24.7549L199.16 25.0283C199.853 25.1924 200.361 25.4385 200.685 25.7666C201.008 26.0902 201.17 26.5117 201.17 27.0312C201.17 27.4779 201.049 27.8607 200.808 28.1797C200.566 28.4987 200.236 28.7425 199.816 28.9111C199.402 29.0798 198.932 29.1641 198.408 29.1641ZM202.537 29V21.7812H203.699V29H202.537ZM203.118 20.373C202.899 20.373 202.713 20.2956 202.558 20.1406C202.403 19.9857 202.325 19.7988 202.325 19.5801C202.325 19.3613 202.403 19.1745 202.558 19.0195C202.713 18.8646 202.899 18.7871 203.118 18.7871C203.337 18.7871 203.524 18.8646 203.679 19.0195C203.834 19.1745 203.911 19.3613 203.911 19.5801C203.911 19.7988 203.834 19.9857 203.679 20.1406C203.524 20.2956 203.337 20.373 203.118 20.373ZM208.402 29.1641C207.737 29.1641 207.151 29.0046 206.646 28.6855C206.144 28.362 205.752 27.9176 205.47 27.3525C205.192 26.7874 205.053 26.138 205.053 25.4043C205.053 24.666 205.192 24.012 205.47 23.4424C205.752 22.8727 206.144 22.4261 206.646 22.1025C207.151 21.779 207.737 21.6172 208.402 21.6172C209.072 21.6172 209.658 21.779 210.159 22.1025C210.66 22.4261 211.05 22.8727 211.328 23.4424C211.611 24.012 211.752 24.666 211.752 25.4043C211.752 26.138 211.611 26.7874 211.328 27.3525C211.05 27.9176 210.66 28.362 210.159 28.6855C209.658 29.0046 209.072 29.1641 208.402 29.1641ZM208.402 28.1113C209.086 28.1113 209.619 27.8652 210.002 27.373C210.385 26.8763 210.576 26.2201 210.576 25.4043C210.576 24.5794 210.382 23.9186 209.995 23.4219C209.612 22.9206 209.081 22.6699 208.402 22.6699C207.723 22.6699 207.19 22.9183 206.803 23.415C206.42 23.9118 206.229 24.5749 206.229 25.4043C206.229 26.2246 206.42 26.8809 206.803 27.373C207.186 27.8652 207.719 28.1113 208.402 28.1113ZM214.268 24.7754V29H213.105V21.7812H214.24V22.8408C214.491 22.4307 214.796 22.1299 215.156 21.9385C215.521 21.7425 215.931 21.6445 216.387 21.6445C216.874 21.6445 217.319 21.7516 217.72 21.9658C218.121 22.1755 218.44 22.4922 218.677 22.916C218.918 23.3398 219.039 23.873 219.039 24.5156V29H217.877V24.5977C217.877 23.9733 217.727 23.5039 217.426 23.1895C217.13 22.8704 216.71 22.7109 216.168 22.7109C215.644 22.7109 215.195 22.8727 214.821 23.1963C214.452 23.5199 214.268 24.0462 214.268 24.7754ZM64.8613 46V38.7812H65.9688V39.916H65.9961C66.1283 39.5423 66.3379 39.2415 66.625 39.0137C66.9121 38.7858 67.2812 38.6719 67.7324 38.6719C67.8372 38.6719 67.9329 38.6764 68.0195 38.6855C68.1107 38.6947 68.179 38.7038 68.2246 38.7129V39.875C68.179 39.8613 68.0902 39.8454 67.958 39.8271C67.8304 39.8044 67.6823 39.793 67.5137 39.793C67.1126 39.793 66.764 39.9342 66.4678 40.2168C66.1715 40.4993 66.0234 40.946 66.0234 41.5566V46H64.8613ZM72.2168 46.1641C71.5104 46.1641 70.9066 46.0023 70.4053 45.6787C69.9085 45.3551 69.528 44.9108 69.2637 44.3457C68.9993 43.776 68.8672 43.1289 68.8672 42.4043C68.8672 41.6706 69.0062 41.0189 69.2842 40.4492C69.5622 39.8796 69.9473 39.4329 70.4395 39.1094C70.9316 38.7812 71.4967 38.6172 72.1348 38.6172C72.8047 38.6172 73.3857 38.7767 73.8779 39.0957C74.3701 39.4147 74.7484 39.859 75.0127 40.4287C75.2816 40.9984 75.416 41.6569 75.416 42.4043V42.7256H70.0156C70.043 43.432 70.2458 44.0062 70.624 44.4482C71.0023 44.8903 71.5332 45.1113 72.2168 45.1113C72.7318 45.1113 73.151 44.9928 73.4746 44.7559C73.8027 44.5189 74.0215 44.2135 74.1309 43.8398H75.293C75.2018 44.3001 75.0127 44.7057 74.7256 45.0566C74.4385 45.403 74.0785 45.6742 73.6455 45.8701C73.2171 46.0661 72.7409 46.1641 72.2168 46.1641ZM70.0293 41.7275H74.2539C74.1901 41.0941 73.9691 40.5905 73.5908 40.2168C73.2126 39.8431 72.7272 39.6562 72.1348 39.6562C71.5423 39.6562 71.0592 39.8431 70.6855 40.2168C70.3118 40.5905 70.0931 41.0941 70.0293 41.7275ZM79.7227 46.1641C79.0573 46.1641 78.4717 46.0046 77.9658 45.6855C77.4645 45.362 77.0726 44.9176 76.79 44.3525C76.512 43.7874 76.373 43.138 76.373 42.4043C76.373 41.666 76.512 41.012 76.79 40.4424C77.0726 39.8727 77.4645 39.4261 77.9658 39.1025C78.4717 38.779 79.0573 38.6172 79.7227 38.6172C80.3926 38.6172 80.9782 38.779 81.4795 39.1025C81.9808 39.4261 82.3704 39.8727 82.6484 40.4424C82.931 41.012 83.0723 41.666 83.0723 42.4043C83.0723 43.138 82.931 43.7874 82.6484 44.3525C82.3704 44.9176 81.9808 45.362 81.4795 45.6855C80.9782 46.0046 80.3926 46.1641 79.7227 46.1641ZM79.7227 45.1113C80.4062 45.1113 80.9395 44.8652 81.3223 44.373C81.7051 43.8763 81.8965 43.2201 81.8965 42.4043C81.8965 41.5794 81.7028 40.9186 81.3154 40.4219C80.9326 39.9206 80.4017 39.6699 79.7227 39.6699C79.0436 39.6699 78.5104 39.9183 78.123 40.415C77.7402 40.9118 77.5488 41.5749 77.5488 42.4043C77.5488 43.2246 77.7402 43.8809 78.123 44.373C78.5059 44.8652 79.0391 45.1113 79.7227 45.1113ZM84.4258 48.8574V38.7812H85.5605V39.8477H85.5742C85.8066 39.4421 86.1279 39.1413 86.5381 38.9453C86.9482 38.7448 87.388 38.6445 87.8574 38.6445C88.4863 38.6445 89.0355 38.8018 89.5049 39.1162C89.9743 39.4307 90.3389 39.8704 90.5986 40.4355C90.8584 40.9961 90.9883 41.6478 90.9883 42.3906C90.9883 43.1289 90.8584 43.7806 90.5986 44.3457C90.3389 44.9062 89.9743 45.346 89.5049 45.665C89.0355 45.9795 88.4863 46.1367 87.8574 46.1367C87.388 46.1367 86.9596 46.0365 86.5723 45.8359C86.1849 45.6309 85.8613 45.321 85.6016 44.9062H85.5879V48.8574H84.4258ZM87.6797 45.0908C88.304 45.0908 88.8145 44.863 89.2109 44.4072C89.612 43.9469 89.8125 43.2747 89.8125 42.3906C89.8125 41.5065 89.612 40.8343 89.2109 40.374C88.8145 39.9137 88.304 39.6836 87.6797 39.6836C87.0098 39.6836 86.4766 39.932 86.0801 40.4287C85.6882 40.9209 85.4922 41.5749 85.4922 42.3906C85.4922 43.2064 85.6882 43.8604 86.0801 44.3525C86.4766 44.8447 87.0098 45.0908 87.6797 45.0908ZM95.3223 46.1641C94.6159 46.1641 94.012 46.0023 93.5107 45.6787C93.014 45.3551 92.6335 44.9108 92.3691 44.3457C92.1048 43.776 91.9727 43.1289 91.9727 42.4043C91.9727 41.6706 92.1117 41.0189 92.3896 40.4492C92.6676 39.8796 93.0527 39.4329 93.5449 39.1094C94.0371 38.7812 94.6022 38.6172 95.2402 38.6172C95.9102 38.6172 96.4912 38.7767 96.9834 39.0957C97.4756 39.4147 97.8538 39.859 98.1182 40.4287C98.387 40.9984 98.5215 41.6569 98.5215 42.4043V42.7256H93.1211C93.1484 43.432 93.3512 44.0062 93.7295 44.4482C94.1077 44.8903 94.6387 45.1113 95.3223 45.1113C95.8372 45.1113 96.2565 44.9928 96.5801 44.7559C96.9082 44.5189 97.127 44.2135 97.2363 43.8398H98.3984C98.3073 44.3001 98.1182 44.7057 97.8311 45.0566C97.5439 45.403 97.1839 45.6742 96.751 45.8701C96.3226 46.0661 95.8464 46.1641 95.3223 46.1641ZM93.1348 41.7275H97.3594C97.2956 41.0941 97.0745 40.5905 96.6963 40.2168C96.318 39.8431 95.8327 39.6562 95.2402 39.6562C94.6478 39.6562 94.1647 39.8431 93.791 40.2168C93.4173 40.5905 93.1986 41.0941 93.1348 41.7275ZM101.01 41.7754V46H99.8477V38.7812H100.982V39.8408C101.233 39.4307 101.538 39.1299 101.898 38.9385C102.263 38.7425 102.673 38.6445 103.129 38.6445C103.617 38.6445 104.061 38.7516 104.462 38.9658C104.863 39.1755 105.182 39.4922 105.419 39.916C105.66 40.3398 105.781 40.873 105.781 41.5156V46H104.619V41.5977C104.619 40.9733 104.469 40.5039 104.168 40.1895C103.872 39.8704 103.452 39.7109 102.91 39.7109C102.386 39.7109 101.937 39.8727 101.563 40.1963C101.194 40.5199 101.01 41.0462 101.01 41.7754ZM110.484 46.1641C109.778 46.1641 109.174 46.0023 108.673 45.6787C108.176 45.3551 107.796 44.9108 107.531 44.3457C107.267 43.776 107.135 43.1289 107.135 42.4043C107.135 41.6706 107.274 41.0189 107.552 40.4492C107.83 39.8796 108.215 39.4329 108.707 39.1094C109.199 38.7812 109.764 38.6172 110.402 38.6172C111.072 38.6172 111.653 38.7767 112.146 39.0957C112.638 39.4147 113.016 39.859 113.28 40.4287C113.549 40.9984 113.684 41.6569 113.684 42.4043V42.7256H108.283C108.311 43.432 108.513 44.0062 108.892 44.4482C109.27 44.8903 109.801 45.1113 110.484 45.1113C110.999 45.1113 111.419 44.9928 111.742 44.7559C112.07 44.5189 112.289 44.2135 112.398 43.8398H113.561C113.469 44.3001 113.28 44.7057 112.993 45.0566C112.706 45.403 112.346 45.6742 111.913 45.8701C111.485 46.0661 111.008 46.1641 110.484 46.1641ZM108.297 41.7275H112.521C112.458 41.0941 112.237 40.5905 111.858 40.2168C111.48 39.8431 110.995 39.6562 110.402 39.6562C109.81 39.6562 109.327 39.8431 108.953 40.2168C108.579 40.5905 108.361 41.0941 108.297 41.7275ZM117.771 46.1367C117.147 46.1367 116.598 45.9795 116.124 45.665C115.655 45.346 115.29 44.9062 115.03 44.3457C114.771 43.7806 114.641 43.1289 114.641 42.3906C114.641 41.6478 114.771 40.9961 115.03 40.4355C115.29 39.8704 115.655 39.4307 116.124 39.1162C116.598 38.8018 117.147 38.6445 117.771 38.6445C118.241 38.6445 118.676 38.7448 119.077 38.9453C119.478 39.1413 119.795 39.4421 120.027 39.8477H120.041V35.8145H121.203V46H120.068V44.9062H120.055C119.795 45.321 119.467 45.6309 119.07 45.8359C118.674 46.0365 118.241 46.1367 117.771 46.1367ZM117.949 45.0908C118.619 45.0908 119.15 44.8447 119.542 44.3525C119.938 43.8604 120.137 43.2064 120.137 42.3906C120.137 41.5749 119.938 40.9209 119.542 40.4287C119.15 39.932 118.619 39.6836 117.949 39.6836C117.325 39.6836 116.812 39.9137 116.411 40.374C116.015 40.8343 115.816 41.5065 115.816 42.3906C115.816 43.2747 116.015 43.9469 116.411 44.4072C116.812 44.863 117.325 45.0908 117.949 45.0908Z" fill="#363636"/>
</svg>
